<?xml version="1.0" encoding="UTF-8"?>
<svg version="1.1" xmlns="http://www.w3.org/2000/svg" width="2000" height="1500">
<path d="M0 0 C660 0 1320 0 2000 0 C2000 495 2000 990 2000 1500 C1340 1500 680 1500 0 1500 C0 1005 0 510 0 0 Z " fill="#EC2546" transform="translate(0,0)"/>
<path d="M0 0 C9.43139855 -0.18545402 18.86216868 -0.32755093 28.2949934 -0.41449738 C32.67526379 -0.45623081 37.05428599 -0.51281968 41.43383789 -0.60351562 C45.66145875 -0.69051616 49.88788029 -0.73828803 54.11632729 -0.75901794 C55.7284261 -0.77378744 57.34046001 -0.80263175 58.95204735 -0.84584045 C71.55692888 -1.17031638 71.55692888 -1.17031638 75.02430725 1.64169312 C76.35923883 3.72615375 77.20112377 5.66310691 78 8 C78.51828369 8.94182129 79.03656738 9.88364258 79.57055664 10.85400391 C80.01262451 11.71944824 80.45469238 12.58489258 80.91015625 13.4765625 C81.41861084 14.4651123 81.92706543 15.45366211 82.45092773 16.47216797 C82.98274658 17.51260254 83.51456543 18.55303711 84.0625 19.625 C88.25629967 27.7648191 92.51794775 35.85551345 96.9375 43.875 C102.04744064 53.15855357 106.93343531 62.54789766 111.78662109 71.96777344 C115.92202902 79.97421491 120.18559311 87.89912924 124.53125 95.79296875 C128.86602558 103.69214865 133.01200785 111.68334162 137.14697266 119.68847656 C140.6574927 126.46676236 144.25625702 133.18806129 147.9375 139.875 C153.0469852 149.15881263 157.93342768 158.54788286 162.78662109 167.96777344 C166.92202902 175.97421491 171.18559311 183.89912924 175.53125 191.79296875 C179.29047427 198.64333234 182.91391994 205.55762133 186.5 212.5 C191.10824324 221.41980077 195.83156468 230.26533454 200.66503906 239.06494141 C205.55825005 247.98331891 210.29322264 256.9821478 215 266 C220.67352135 256.41843374 225.83949815 246.60925978 230.94482422 236.71557617 C234.47823175 229.88368169 238.0967891 223.10925239 241.8125 216.375 C247.07071447 206.83192262 252.06834979 197.16582396 257.04019165 187.47186279 C261.70498823 178.38163779 266.48146936 169.37008707 271.421875 160.42578125 C275.76289031 152.52560017 279.88670498 144.52015356 284 136.5 C289.00964998 126.73212243 294.11372946 117.03585794 299.421875 107.42578125 C303.76289031 99.52560017 307.88670498 91.52015356 312 83.5 C316.56147165 74.6059861 321.16672849 65.75054671 326 57 C331.90689188 46.30370875 337.49622973 35.45027525 343.06152344 24.5736084 C347.29453539 16.33216396 351.6374603 8.17976193 356 0 C380.42 0 404.84 0 430 0 C431.96646295 10.48780242 433.7056058 20.75019684 434.9375 31.3125 C435.27553089 34.1294517 435.61907508 36.94570706 435.96484375 39.76171875 C436.05059662 40.46083374 436.13634949 41.15994873 436.22470093 41.88024902 C437.04292466 48.47806298 438.00166194 55.05211836 439 61.625 C440.98138022 74.69960383 442.73040539 87.79931992 444.45703125 100.90966797 C445.02360995 105.19248081 445.60443078 109.47331139 446.1875 113.75390625 C448.22912898 128.75124098 450.23429658 143.75099518 452.13165283 158.76733398 C452.2325824 159.56598877 452.33351196 160.36464355 452.4375 161.1875 C452.58913605 162.38741577 452.58913605 162.38741577 452.74383545 163.61157227 C454.50051131 177.47168567 456.44746798 191.29991047 458.45236206 205.12606812 C460.26951907 217.67174076 461.93642399 230.22169744 463.46118164 242.80639648 C464.8218836 253.89357184 466.39704057 264.9455168 468 276 C469.9702194 289.58721677 471.80968392 303.17484861 473.4609375 316.8046875 C474.82180643 327.89242288 476.39695775 338.94494566 478 350 C479.9702194 363.58721677 481.80968392 377.17484861 483.4609375 390.8046875 C484.82180643 401.89242288 486.39695775 412.94494566 488 424 C489.9702194 437.58721677 491.80968392 451.17484861 493.4609375 464.8046875 C494.82180674 475.89242542 496.39703379 486.94493221 498 498 C500.40449122 514.58506981 502.61169919 531.18233161 504.61450195 547.82080078 C505.06649776 551.54840648 505.53426081 555.27408649 506 559 C475.64 559 445.28 559 414 559 C412.288125 545.531875 410.57625 532.06375 408.8125 518.1875 C408.28374268 514.03696045 407.75498535 509.8864209 407.21020508 505.61010742 C404.60627705 485.10276599 402.08938188 464.58847371 399.74580383 444.04960632 C398.37953825 432.09528833 396.91018353 420.15585094 395.40495872 408.21827507 C394.70420038 402.64923065 394.01132187 397.07920522 393.31762695 391.50927734 C393.0204051 389.12470068 392.72314787 386.74012843 392.42585754 384.3555603 C392.19733565 382.52251909 392.19733565 382.52251909 391.96419716 380.65244675 C390.94669769 372.49282009 389.92818955 364.33331926 388.90968037 356.17381859 C388.03065082 349.131427 387.15208092 342.08897869 386.2746582 335.04638672 C385.24316773 326.76772013 384.21033416 318.48922197 383.17578125 310.2109375 C383.09024569 309.52646907 383.00471013 308.84200065 382.91658258 308.13679075 C380.07312949 285.38938026 377.16252731 262.65108304 374.2177372 239.91658783 C371.74516988 220.82708342 369.31817173 201.73387651 367 182.625 C366.69941362 180.16143455 366.39863051 177.69789309 366.09765625 175.234375 C365.39623057 169.48985045 364.6969919 163.74506413 364 158 C363.66626877 158.64207901 363.33253754 159.28415802 362.98869324 159.94569397 C361.44533307 162.91356103 359.90040863 165.88061123 358.35546875 168.84765625 C357.83078003 169.8571936 357.30609131 170.86673096 356.76550293 171.90686035 C353.35286922 178.45748764 349.87044791 184.96470693 346.3125 191.4375 C345.49978638 192.91996216 345.49978638 192.91996216 344.6706543 194.43237305 C344.22633057 195.24230713 343.78200684 196.05224121 343.32421875 196.88671875 C339.36286569 204.14172664 335.49551331 211.44627756 331.625 218.75 C325.84338825 229.65803295 320.03041039 240.54792603 314.16845703 251.41308594 C309.93100319 259.26758288 305.71138077 267.13150283 301.5 275 C296.10514425 285.07859193 290.69292007 295.14767428 285.26953125 305.2109375 C281.00095592 313.1341807 276.74740176 321.0653896 272.5 329 C267.10497264 339.07850036 261.69292034 349.14767377 256.26953125 359.2109375 C252.00095696 367.13417876 247.7475629 375.06548228 243.5 383 C238.46677379 392.40038663 233.42714698 401.79727145 228.375 411.1875 C227.80716797 412.24388672 227.23933594 413.30027344 226.65429688 414.38867188 C223.48035768 420.28421642 220.27062221 426.15750446 217 432 C216.34 432 215.68 432 215 432 C214.58339111 431.21165771 214.16678223 430.42331543 213.73754883 429.61108398 C206.71871524 416.34622955 199.70359762 403.0899326 192.25 390.0625 C187.45464251 381.6796189 182.93068666 373.18782374 178.50756836 364.60351562 C175.08873402 358.00132077 171.50689694 351.5140454 167.8125 345.0625 C162.5141649 335.80652772 157.47377543 326.43255542 152.5 317 C147.6257096 307.75767597 142.69614744 298.56701486 137.5 289.5 C131.91340096 279.75166682 126.64134279 269.853882 121.40151978 259.91677856 C116.29465222 250.2378559 111.04028643 240.66564181 105.6015625 231.16796875 C101.3760021 223.75470488 97.42921882 216.21672316 93.52270508 208.6315918 C89.50376565 200.86816742 85.25986593 193.24916898 80.890625 185.67773438 C77.38111123 179.56364691 74.06098581 173.36272733 70.78759766 167.12011719 C70.32597733 166.24132904 69.86435699 165.36254089 69.38874817 164.4571228 C68.25845 162.30512284 67.12888665 160.15274065 66 158 C65.88167344 158.9517662 65.76334688 159.90353241 65.64143467 160.88414001 C57.50062646 226.36468481 49.35556769 291.84470016 41.20448822 357.32396722 C40.43381777 363.51491903 39.66319734 369.70587707 38.89263612 375.89684248 C36.52530642 394.91663926 34.15693272 413.93630464 31.78365612 432.95536041 C31.60323648 434.4012297 31.42281814 435.84709914 31.24240112 437.29296875 C31.15432727 437.99879262 31.06625342 438.7046165 30.97551066 439.43182898 C30.36943004 444.28973843 29.7643339 449.14776985 29.15969849 454.00585938 C28.20627808 461.66563429 27.25080666 469.32515118 26.29296875 476.984375 C26.14695536 478.15201889 26.00094196 479.31966278 25.85050392 480.52268982 C23.78938459 496.97878242 21.65925672 513.42419995 19.33964062 529.84606552 C18.00995611 539.5684868 17.03039822 549.21121687 16 559 C-14.03 559 -44.06 559 -75 559 C-75 547.76417234 -75 547.76417234 -74.265625 543.2421875 C-74.02622192 541.71343994 -74.02622192 541.71343994 -73.78198242 540.15380859 C-73.51865112 538.53079834 -73.51865112 538.53079834 -73.25 536.875 C-71.72543724 527.05781115 -70.37392444 517.23858224 -69.1875 507.375 C-67.36046999 492.31419509 -65.20875866 477.30568309 -63.0355835 462.29138184 C-60.9894315 448.13786157 -59.06630195 433.98203624 -57.34765625 419.78515625 C-56.22153171 410.55287661 -54.89296261 401.3631289 -53.49267578 392.16894531 C-52.25006307 383.91934421 -51.19009026 375.65690102 -50.1875 367.375 C-48.35923891 352.31432467 -46.20876407 337.30572049 -44.0355835 322.29138184 C-41.9894315 308.13786157 -40.06630195 293.98203624 -38.34765625 279.78515625 C-37.22153171 270.55287661 -35.89296261 261.3631289 -34.49267578 252.16894531 C-33.25006374 243.91934859 -32.18994794 235.65691619 -31.1875 227.375 C-29.34509277 212.17869624 -27.16451876 197.03680251 -24.96820068 181.88809204 C-23.12071613 169.12419368 -21.37170306 156.37544732 -19.98754883 143.55200195 C-19.22481748 136.6035135 -18.22677842 129.71491207 -17.125 122.8125 C-15.43358644 112.21006713 -14.02082976 101.58928468 -12.6875 90.9375 C-9.99780704 69.48631207 -6.92092156 48.09372925 -3.82324219 26.69824219 C-2.5359974 17.80066769 -1.26850338 8.90026215 0 0 Z " fill="#8D021F" transform="translate(785,470)"/>
<path d="M0 0 C0.33 0 0.66 0 1 0 C1.72015578 4.96103057 2.43190996 9.9231711 3.13623047 14.88647461 C3.37649178 16.57136754 3.61896265 18.25594706 3.86376953 19.94018555 C4.21722166 22.37467722 4.56245541 24.81022173 4.90625 27.24609375 C5.0156189 27.98709824 5.12498779 28.72810272 5.2376709 29.49156189 C5.9763477 34.80501866 6 39.52399259 6 45 C-28.98 45 -63.96 45 -100 45 C-100 43.35 -100 41.7 -100 40 C-99.22485046 39.99413376 -98.44970093 39.98826752 -97.65106201 39.98222351 C-90.29651925 39.92398709 -82.94230339 39.85173761 -75.58805466 39.76428509 C-71.80839985 39.7198194 -68.02884695 39.68051323 -64.24902344 39.65356445 C-60.59185864 39.62729088 -56.93509117 39.58672543 -53.27817535 39.53681374 C-51.89260097 39.52030566 -50.50695812 39.50869255 -49.12129974 39.50238609 C-35.46070013 39.43400742 -22.75317103 37.84899732 -12.22265625 28.40625 C-4.76231296 20.3574318 -2.03287276 10.54449448 0 0 Z " fill="#8E021F" transform="translate(1331,1029)"/>
<path d="M0 0 C2.15440432 3.23160648 2.51068647 5.22074594 3.1875 9 C5.43511316 19.04157522 10.25446066 26.59691343 18.671875 32.56640625 C26.74696605 37.5388197 34.08586564 39.07163191 43.57788086 39.20532227 C44.83865952 39.22526749 46.09943817 39.24521271 47.39842224 39.26576233 C48.75389487 39.28273998 50.10936875 39.29961903 51.46484375 39.31640625 C52.86732043 39.33700759 54.26979135 39.35800483 55.67225647 39.37937927 C59.34314268 39.43427193 63.01408184 39.48382423 66.68505859 39.53222656 C70.43917489 39.58268293 74.19321538 39.63824233 77.94726562 39.69335938 C85.29811268 39.80053895 92.64902326 39.90207118 100 40 C100 41.65 100 43.3 100 45 C65.35 45 30.7 45 -5 45 C-5 38.83474832 -4.79486759 33.26672337 -3.90625 27.24609375 C-3.79526978 26.45977066 -3.68428955 25.67344757 -3.56994629 24.86329651 C-3.21912125 22.3871592 -2.8597248 19.91235834 -2.5 17.4375 C-2.258543 15.74422203 -2.01765254 14.05086318 -1.77734375 12.35742188 C-1.19143116 8.23731855 -0.59783585 4.11838941 0 0 Z " fill="#8E021F" transform="translate(668,1029)"/>
<path d="M0 0 C28.38 0 56.76 0 86 0 C86.99 2.475 86.99 2.475 88 5 C87.26243469 5.00142502 86.52486938 5.00285004 85.76495361 5.00431824 C78.76348351 5.02225778 71.76264447 5.0641915 64.76150894 5.13209057 C61.16335204 5.1661668 57.56561095 5.19143992 53.96728516 5.19555664 C50.48499049 5.19988187 47.00363069 5.22868608 43.52162933 5.27343178 C41.56783495 5.29246026 39.61385086 5.28709071 37.65997314 5.28105164 C26.04232034 5.46805119 15.53579153 8.84612308 7 17 C0.56623694 24.31309286 -2.39803648 31.46360538 -4 41 C-4.33 41 -4.66 41 -5 41 C-4.48718869 27.12845403 -2.04772562 13.82214793 0 0 Z " fill="#8F021F" transform="translate(750,425)"/>
<path d="M0 0 C28.38 0 56.76 0 86 0 C90 26 90 26 90 33 C88.85963732 31.28945598 87.74913949 29.55575167 86.73828125 27.765625 C80.84124605 17.36099302 74.3430824 11.31152877 63 7 C56.26099795 5.69506372 49.473557 5.77640229 42.62890625 5.68359375 C41.35144028 5.66281265 40.0739743 5.64203156 38.75779724 5.62062073 C35.38281381 5.56650546 32.00781821 5.51619879 28.63275146 5.46777344 C25.18024692 5.41728721 21.72782402 5.3617436 18.27539062 5.30664062 C11.51699237 5.19979186 4.75853251 5.09796778 -2 5 C-1.34 3.35 -0.68 1.7 0 0 Z " fill="#8E021F" transform="translate(1164,425)"/>
</svg>
